<svg width="48" height="48" viewBox="0 0 48 48" fill="none" xmlns="http://www.w3.org/2000/svg">
<path d="M24.1253 4.61084C20.2791 4.61084 16.5193 5.75335 13.3214 7.8939C10.1234 10.0344 7.63087 13.0769 6.159 16.6365C4.68714 20.1961 4.30203 24.113 5.05238 27.8918C5.80273 31.6707 7.65484 35.1418 10.3745 37.8662C13.0941 40.5906 16.5592 42.4459 20.3315 43.1976C24.1037 43.9492 28.0138 43.5634 31.5672 42.089C35.1206 40.6146 38.1577 38.1177 40.2945 34.9142C42.4314 31.7106 43.5719 27.9442 43.5719 24.0914C43.5662 18.9265 41.5156 13.9749 37.8699 10.3228C34.2241 6.67074 29.2811 4.61651 24.1253 4.61084ZM24.1253 39.6758C21.0484 39.6758 18.0405 38.7618 15.4821 37.0493C12.9238 35.3369 10.9298 32.9029 9.75226 30.0553C8.57477 27.2076 8.26668 24.0741 8.86697 21.051C9.46725 18.0279 10.9489 15.251 13.1247 13.0715C15.3004 10.892 18.0724 9.40772 21.0902 8.80639C24.108 8.20507 27.2361 8.51369 30.0788 9.69324C32.9215 10.8728 35.3512 12.8703 37.0607 15.4331C38.7701 17.996 39.6826 21.0091 39.6826 24.0914C39.6779 28.2232 38.0374 32.1844 35.1208 35.1061C32.2043 38.0277 28.2499 39.6711 24.1253 39.6758Z" fill="white"/>
<path d="M18.2915 13.272V34.9109L35.5737 24.0915L18.2915 13.272ZM22.1808 20.3005L28.2345 24.0915L22.1808 27.8824V20.3005Z" fill="white"/>
</svg>
